<svg width="150" height="128" viewBox="0 0 150 128" fill="none" xmlns="http://www.w3.org/2000/svg">
<g clip-path="url(#clip0_5_19033)">
<path d="M111.571 48.0261L76.9111 103.961L88.6912 128L123.351 72.0654L111.571 48.0261Z" fill="#806EFF"/>
<path d="M34.6597 0L0 55.9345L11.7801 79.9738L46.4398 24.0393L34.6597 0Z" fill="#806EFF"/>
<path d="M84.9213 48.0262L99.7904 24.0393L90.2616 4.66121L88.0103 0L58.2197 48.0262L23.5601 103.961L35.3402 128L69.9999 72.0655L66.1255 64.1047L58.2197 48.0262H84.9213Z" fill="#806EFF"/>
<path d="M150 72.0654L138.22 48.0261H111.571L123.351 72.0654L88.6909 128H115.34L150 72.0654Z" fill="black"/>
<path d="M73.0892 24.0393L61.3091 0H34.6598L46.4399 24.0393L11.7803 79.9738H38.4295L73.0892 24.0393Z" fill="black"/>
<path d="M96.7016 72.0655L126.44 24.0393L114.66 0H88.0105L99.7906 24.0393L84.9215 48.0262H58.2199L70 72.0655L35.3403 128H62.0419L91.7801 79.9738L96.7016 72.0655Z" fill="black"/>
</g>
<defs>
<clipPath id="clip0_5_19033">
<rect width="150" height="128" fill="white"/>
</clipPath>
</defs>
</svg>
